<svg xmlns="http://www.w3.org/2000/svg" width="48" height="48" fill="none" viewBox="0 0 48 48">
  <g clip-path="url(#a)">
    <mask id="b" width="48" height="48" x="0" y="0" maskUnits="userSpaceOnUse" style="mask-type:alpha">
      <path fill="#fff" d="M48 24C48 10.745 37.255 0 24 0S0 10.745 0 24s10.745 24 24 24 24-10.745 24-24Z"/>
    </mask>
    <g mask="url(#b)">
      <path fill="#45AFEA" d="M48 0H0v48h48V0Z"/>
      <path fill="#064061" d="m8.462 25.916 24.869 20.138a8 8 0 0 0 11.251-1.183l20.139-24.868A8 8 0 0 0 63.538 8.75L38.669-11.387a8 8 0 0 0-11.251 1.182L7.279 14.664a8 8 0 0 0 1.183 11.252Z"/>
      <path stroke="#fff" stroke-linecap="round" stroke-width="2.222" d="M25.84 19.358c2.426 1.734 5.06 2.151 7.902 1.251"/>
      <path fill="#fff" d="M22.066 13.36c.115-.727-.234-1.387-.78-1.473-.545-.087-1.08.433-1.196 1.16-.115.728.234 1.387.78 1.474.545.086 1.08-.434 1.196-1.16Zm18.437 2.92c.115-.727-.234-1.387-.78-1.473-.545-.087-1.08.433-1.196 1.16-.115.728.234 1.387.78 1.474.545.086 1.08-.433 1.196-1.16Z"/>
    </g>
  </g>
  <defs>
    <clipPath id="a">
      <path fill="#fff" d="M0 0h48v48H0z"/>
    </clipPath>
  </defs>
</svg>
