<svg xmlns="http://www.w3.org/2000/svg" width="48" height="48" fill="none" viewBox="0 0 48 48">
  <g clip-path="url(#a)">
    <mask id="b" width="48" height="48" x="0" y="0" maskUnits="userSpaceOnUse" style="mask-type:alpha">
      <path fill="#fff" d="M48 24C48 10.745 37.255 0 24 0S0 10.745 0 24s10.745 24 24 24 24-10.745 24-24Z"/>
    </mask>
    <g mask="url(#b)">
      <path fill="#45AFEA" d="M48 0H0v48h48V0Z"/>
      <path fill="#98DAFF" d="M57.217 21.738C52.231 8.038 37.081.973 23.38 5.96 9.68 10.947 2.615 26.096 7.602 39.797c4.986 13.701 20.136 20.765 33.837 15.779 13.7-4.987 20.765-20.137 15.778-33.838Z"/>
      <path stroke="#064061" stroke-linecap="round" stroke-width="2.222" d="M14.667 22.667c2.666 1.333 5.333 1.333 8 0"/>
      <path fill="#064061" d="M15.333 16c0-.736-.447-1.333-1-1.333-.552 0-1 .597-1 1.333s.448 1.333 1 1.333c.553 0 1-.597 1-1.333Zm8 0c0-.736-.447-1.333-1-1.333-.552 0-1 .597-1 1.333s.448 1.333 1 1.333c.553 0 1-.597 1-1.333Z"/>
    </g>
  </g>
  <defs>
    <clipPath id="a">
      <path fill="#fff" d="M0 0h48v48H0z"/>
    </clipPath>
  </defs>
</svg>
