<svg xmlns="http://www.w3.org/2000/svg" width="32" height="33" fill="none" viewBox="0 0 32 33">
  <g clip-path="url(#a)">
    <mask id="b" width="32" height="33" x="0" y="0" maskUnits="userSpaceOnUse" style="mask-type:alpha">
      <path fill="#fff" d="M32 16.5c0-8.837-7.163-16-16-16S0 7.663 0 16.5s7.163 16 16 16 16-7.163 16-16Z"/>
    </mask>
    <g mask="url(#b)">
      <path fill="#064061" d="M32 .5H0v32h32V.5Z"/>
      <path fill="#98DAFF" d="M16.164 5.141C7.436 6.524 1.48 14.72 2.864 23.447c1.382 8.728 9.578 14.683 18.306 13.3 8.727-1.382 14.682-9.578 13.3-18.305-1.383-8.728-9.579-14.683-18.306-13.3Z"/>
      <path fill="#064061" d="M7.127 18.355c.016.884.499 1.724 1.343 2.334.844.61 1.98.942 3.16.921 1.178-.02 2.302-.391 3.124-1.03.823-.64 1.276-1.496 1.26-2.38m-7.616-3.423c-.008-.49-.314-.884-.682-.877-.368.006-.66.41-.65.9.008.491.313.884.681.877.368-.006.66-.41.651-.9Zm7.11-.124c-.008-.491-.313-.884-.682-.877-.368.006-.66.41-.65.9.008.49.313.884.681.877.369-.006.66-.41.651-.9Z"/>
    </g>
  </g>
  <defs>
    <clipPath id="a">
      <path fill="#fff" d="M0 .5h32v32H0z"/>
    </clipPath>
  </defs>
</svg>
